<svg width="70" height="81" viewBox="0 0 70 81" fill="none" xmlns="http://www.w3.org/2000/svg">
<path d="M37 80.4977V16.9995L50.2431 26.6896V35.8948L44.5674 32.5034V48.0073H64.4323V45.827L55.4457 40.2553L55.9188 30.5653L69.9997 40.9993V51.9992V62.4994L55.4457 70.7783V63.0264L64.4323 57.6973V54.7901L44.3311 55.0323L44.0943 76.5926L37 80.4977Z" fill="#5E2D4F"/>
<path d="M33.108 16.9995L0 41.2244V63.5112L7.09435 66.4178L6.85808 45.3427L12.5338 41.2244L12.77 69.8098L19.8649 73.2012V35.6527L25.5406 31.5343V76.5926L33.108 80.4683V16.9995Z" fill="#5E2D4F"/>
<path d="M35.2136 0L0 25.6227V33.5533L34.9741 9.25058L69.9994 33.9997V30.5507V25.6227L35.2136 0Z" fill="#5E2D4F"/>
</svg>
